<svg width="102" height="33" viewBox="0 0 102 33" fill="none" xmlns="http://www.w3.org/2000/svg">
<path d="M7.0077 15.6482C7.11436 15.6482 7.18903 15.7975 7.2317 16.0962C7.2957 16.3948 7.3277 17.0775 7.3277 18.1442C7.3277 19.1682 7.2957 19.8295 7.2317 20.1282C7.18903 20.4268 7.11436 20.5762 7.0077 20.5762H5.7277C3.85036 20.5762 2.42103 20.0428 1.4397 18.9762C0.479695 17.9095 -0.000304699 16.3842 -0.000304699 14.4002V0.000171661H4.7357V14.0482C4.7357 14.6028 4.84236 15.0082 5.0557 15.2642C5.26903 15.5202 5.61036 15.6482 6.0797 15.6482H7.0077ZM16.1007 14.5922C16.1007 16.4482 15.546 17.9095 14.4367 18.9762C13.3487 20.0428 11.8767 20.5762 10.0207 20.5762H7.0127C6.79936 20.5762 6.6927 19.7655 6.6927 18.1442C6.6927 16.4802 6.79936 15.6482 7.0127 15.6482H10.0207C10.4474 15.6482 10.7887 15.5308 11.0447 15.2962C11.322 15.0615 11.4607 14.7522 11.4607 14.3682V9.24817H16.1007V14.5922ZM14.1807 23.4882V27.4562H4.9647V23.4882H14.1807ZM35.1982 15.6482C35.4115 15.6482 35.5182 16.4802 35.5182 18.1442C35.5182 19.7655 35.4115 20.5762 35.1982 20.5762H32.8622C32.6275 22.9442 31.7742 24.7895 30.3022 26.1122C28.8515 27.4562 26.9422 28.1282 24.5742 28.1282H20.0622L19.6782 23.2642H25.1182C26.1209 23.2642 26.8995 23.0188 27.4542 22.5282C28.0302 22.0588 28.3182 21.4082 28.3182 20.5762H26.5262C24.1582 20.5762 22.4622 20.0855 21.4382 19.1042C20.4355 18.1015 19.9342 16.5122 19.9342 14.3362C19.9342 12.9708 20.2009 11.7548 20.7342 10.6882C21.2889 9.60017 22.0569 8.7575 23.0382 8.16017C24.0409 7.5415 25.1822 7.23217 26.4622 7.23217C28.4889 7.23217 30.0782 7.88284 31.2302 9.18417C32.3822 10.4642 32.9582 12.2562 32.9582 14.5602V15.6482H35.1982ZM24.5422 14.1122C24.5422 14.7308 24.6915 15.1788 24.9902 15.4562C25.3102 15.7122 25.8542 15.8402 26.6222 15.8402H28.3822V14.3682C28.3822 13.5362 28.2009 12.9068 27.8382 12.4802C27.4969 12.0535 27.0062 11.8402 26.3662 11.8402C25.7689 11.8402 25.3102 12.0535 24.9902 12.4802C24.6915 12.8855 24.5422 13.4295 24.5422 14.1122ZM42.8802 15.6482C43.2855 15.6482 43.6162 15.5308 43.8722 15.2962C44.1495 15.0615 44.2882 14.7522 44.2882 14.3682V9.24817H48.9282V14.5922C48.9282 16.4482 48.3735 17.9095 47.2642 18.9762C46.1762 20.0428 44.7042 20.5762 42.8482 20.5762H35.2002C34.9869 20.5762 34.8802 19.7655 34.8802 18.1442C34.8802 16.4802 34.9869 15.6482 35.2002 15.6482H42.8802ZM44.3522 23.4882V27.4562H35.1362V23.4882H44.3522ZM37.7282 32.6402V28.8002H41.7602V32.6402H37.7282ZM49.5694 23.2002C50.9134 23.2002 51.9374 22.8588 52.6414 22.1762C53.3668 21.5148 53.7294 20.5442 53.7294 19.2642V9.24817H58.4654V14.1122C58.4654 14.6455 58.5934 15.0402 58.8494 15.2962C59.1054 15.5308 59.5108 15.6482 60.0654 15.6482H60.8654C61.0788 15.6482 61.1854 16.4802 61.1854 18.1442C61.1854 19.7655 61.0788 20.5762 60.8654 20.5762H60.3214C59.4894 20.5762 58.8601 20.3948 58.4334 20.0322C58.3268 21.5895 57.9108 22.9762 57.1854 24.1922C56.4814 25.4295 55.4894 26.3895 54.2094 27.0722C52.9508 27.7762 51.4681 28.1282 49.7614 28.1282H48.5454L48.1614 23.2002H49.5694ZM62.2644 15.6482C63.4164 15.6482 63.9924 15.1575 63.9924 14.1762V9.24817H68.6964V13.6642C68.6964 14.0055 68.7284 14.2402 68.7924 14.3682C68.8564 14.4962 68.9844 14.6135 69.1764 14.7202C70.8831 11.9042 72.5151 9.85617 74.0724 8.57617C75.6298 7.29617 77.2831 6.65617 79.0324 6.65617C80.2698 6.65617 81.3578 6.94417 82.2964 7.52017C83.2564 8.09617 84.0031 8.90684 84.5364 9.95217C85.0698 10.9762 85.3364 12.1602 85.3364 13.5042C85.3364 14.2722 85.2404 14.9122 85.0484 15.4242C85.3684 15.5735 85.9444 15.6482 86.7764 15.6482H87.5764C87.7898 15.6482 87.8964 16.4802 87.8964 18.1442C87.8964 19.7655 87.7898 20.5762 87.5764 20.5762H86.7764C85.8378 20.5762 85.0378 20.4802 84.3764 20.2882C83.7364 20.0962 83.1498 19.7548 82.6164 19.2642C81.4004 20.1388 79.9178 20.5762 78.1684 20.5762H70.2004C68.3018 20.5762 66.9578 20.1068 66.1684 19.1682C65.7631 19.6588 65.2511 20.0215 64.6324 20.2562C64.0351 20.4695 63.2458 20.5762 62.2644 20.5762H60.8564C60.6431 20.5762 60.5364 19.7655 60.5364 18.1442C60.5364 16.4802 60.6431 15.6482 60.8564 15.6482H62.2644ZM78.2324 15.7122C79.0004 15.7122 79.5978 15.5202 80.0244 15.1362C80.4511 14.7522 80.6644 14.2082 80.6644 13.5042C80.6644 12.8642 80.4724 12.3522 80.0884 11.9682C79.7258 11.5628 79.2458 11.3602 78.6484 11.3602C77.9444 11.3602 77.1764 11.7228 76.3444 12.4482C75.5338 13.1522 74.5951 14.2402 73.5284 15.7122H78.2324ZM90.0712 15.6482C89.7725 15.0722 89.6232 14.4002 89.6232 13.6322C89.6232 12.3735 89.8899 11.2322 90.4232 10.2082C90.9779 9.18417 91.7565 8.38417 92.7592 7.80817C93.7619 7.23217 94.9032 6.94417 96.1832 6.94417C97.0365 6.94417 97.8579 7.0615 98.6472 7.29617C99.4579 7.53084 100.301 7.91484 101.175 8.44817L99.6712 12.4482C98.3699 11.9362 97.2499 11.6802 96.3112 11.6802C95.7139 11.6802 95.2125 11.8615 94.8072 12.2242C94.4232 12.5868 94.2312 13.0455 94.2312 13.6002C94.2312 14.2188 94.4125 14.7202 94.7752 15.1042C95.1379 15.4668 95.6499 15.6482 96.3112 15.6482H101.911L101.527 20.5762H87.5752C87.3619 20.5762 87.2552 19.7655 87.2552 18.1442C87.2552 16.4802 87.3619 15.6482 87.5752 15.6482H90.0712Z" fill="white"/>
</svg>
