<svg width="616" height="511" viewBox="0 0 616 511" fill="none" xmlns="http://www.w3.org/2000/svg">
<rect y="136" width="616" height="236" rx="24" fill="#06B1FD"/>
<path d="M416.786 208.455C373.947 218.794 312.209 209.882 287.664 176.727C263.119 143.573 277.284 78.4683 310.439 53.9235C343.593 29.3786 412.359 39.2836 436.904 72.4382C461.449 105.593 461.325 189.112 416.786 208.455Z" fill="white" fill-opacity="0.4"/>
<path d="M300.759 44.5C280.041 44.5 252.745 57.0093 231.997 75.5225C211.253 94.0323 197.23 118.381 202.686 142.011C211.354 162.441 226.756 183.823 245.195 200.095C263.654 216.384 285.091 227.5 305.8 227.5C326.488 227.5 347.913 214.936 364.19 197.113C380.465 179.292 391.5 156.312 391.5 135.622C391.5 114.95 379.223 92.1643 361.685 74.5244C344.147 56.8845 321.457 44.5002 300.759 44.5Z" stroke="white" stroke-opacity="0.8"/>
<path d="M199.181 315.178C217.077 355.462 219.425 417.851 191.207 448.04C162.989 478.229 96.3438 476.128 66.2075 447.959C36.0712 419.791 33.4345 350.305 61.6525 320.116C89.8705 289.927 172.115 274.858 199.181 315.178Z" fill="white" fill-opacity="0.4"/>
</svg>
