<svg width="1056" height="536" viewBox="0 0 1056 536" fill="none" xmlns="http://www.w3.org/2000/svg">
<rect y="130" width="1056" height="232" rx="24" fill="#06B1FD"/>
<path d="M639.786 208.455C596.947 218.794 535.209 209.882 510.664 176.727C486.119 143.573 500.284 78.4683 533.439 53.9235C566.593 29.3786 635.359 39.2836 659.904 72.4382C684.449 105.593 684.325 189.112 639.786 208.455Z" fill="white" fill-opacity="0.4"/>
<path d="M523.241 51.5C543.959 51.5 571.255 64.0093 592.003 82.5225C612.747 101.032 626.77 125.381 621.314 149.011C612.646 169.441 597.244 190.823 578.805 207.095C560.346 223.384 538.909 234.5 518.2 234.5C497.512 234.5 476.087 221.936 459.81 204.113C443.535 186.292 432.5 163.312 432.5 142.622C432.5 121.95 444.777 99.1643 462.315 81.5244C479.853 63.8845 502.543 51.5002 523.241 51.5Z" stroke="white" stroke-opacity="0.8"/>
<path d="M199.181 340.178C217.077 380.462 219.425 442.851 191.207 473.04C162.989 503.229 96.3438 501.128 66.2075 472.959C36.0712 444.791 33.4345 375.305 61.6525 345.116C89.8705 314.927 172.115 299.858 199.181 340.178Z" fill="white" fill-opacity="0.4"/>
</svg>
