<svg width="553" height="659" viewBox="0 0 553 659" fill="none" xmlns="http://www.w3.org/2000/svg">
<rect x="57" y="136" width="392" height="332" rx="24" fill="#06B1FD"/>
<path d="M473.786 208.455C430.947 218.794 369.209 209.882 344.664 176.727C320.119 143.573 334.284 78.4683 367.439 53.9235C400.593 29.3786 469.359 39.2836 493.904 72.4382C518.449 105.593 518.325 189.112 473.786 208.455Z" fill="white" fill-opacity="0.4"/>
<path d="M357.759 44.5C337.041 44.5 309.745 57.0093 288.997 75.5225C268.253 94.0323 254.23 118.381 259.686 142.011C268.354 162.441 283.756 183.823 302.195 200.095C320.654 216.384 342.091 227.5 362.8 227.5C383.488 227.5 404.913 214.936 421.19 197.113C437.465 179.292 448.5 156.312 448.5 135.622C448.5 114.95 436.223 92.1643 418.685 74.5244C401.147 56.8845 378.457 44.5002 357.759 44.5Z" stroke="white" stroke-opacity="0.8"/>
<path d="M199.181 463.178C217.077 503.462 219.425 565.851 191.207 596.04C162.989 626.229 96.3438 624.128 66.2075 595.959C36.0712 567.791 33.4345 498.305 61.6525 468.116C89.8705 437.927 172.115 422.858 199.181 463.178Z" fill="white" fill-opacity="0.4"/>
</svg>
