<svg width="393" height="334" viewBox="0 0 393 334" fill="none" xmlns="http://www.w3.org/2000/svg">
<rect y="0.591438" width="392" height="332" rx="24" fill="#06B1FD"/>
<path d="M392.5 33.0143C360.072 31.8917 326.766 21.7287 308.706 1.09144L382.331 0.63929L392.5 0.57679V33.0143Z" fill="white" fill-opacity="0.4"/>
<path d="M389.502 12.5617L381.971 0.261078" stroke="white" stroke-opacity="0.8"/>
<path d="M388.883 12.5072C367.746 36.6442 339.875 55.0912 313.2 55.0912C298.653 55.091 283.738 48.8807 270.495 38.9828C257.476 29.2518 246.109 15.9789 238.336 1.62924L381.692 0.762054L388.883 12.5072Z" stroke="white" stroke-opacity="0.8"/>
<path d="M21.3975 325.899C48.1255 297.305 126.088 283.088 151.781 321.332C153.512 325.221 155.09 329.327 156.5 333.596L15.7656 333.098C17.4717 330.502 19.3487 328.091 21.3975 325.899Z" fill="white" fill-opacity="0.4"/>
</svg>
