<svg width="48" height="48" viewBox="0 0 48 48" fill="none" xmlns="http://www.w3.org/2000/svg">
<rect width="48" height="48" rx="24" fill="white"/>
<rect x="0.1" y="0.1" width="47.8" height="47.8" rx="23.9" stroke="#06B1FD" stroke-opacity="0.6" stroke-width="0.2"/>
<path d="M24 34C29.5228 34 34 29.5228 34 24C34 18.4772 29.5228 14 24 14C18.4772 14 14 18.4772 14 24C14 29.5228 18.4772 34 24 34Z" stroke="#06B1FD" stroke-width="1.5" stroke-linecap="round" stroke-linejoin="round"/>
<path d="M19.9996 15H20.9996C19.0496 20.84 19.0496 27.16 20.9996 33H19.9996" stroke="#06B1FD" stroke-width="1.5" stroke-linecap="round" stroke-linejoin="round"/>
<path d="M27 15C28.95 20.84 28.95 27.16 27 33" stroke="#06B1FD" stroke-width="1.5" stroke-linecap="round" stroke-linejoin="round"/>
<path d="M15 28V27C20.84 28.95 27.16 28.95 33 27V28" stroke="#06B1FD" stroke-width="1.5" stroke-linecap="round" stroke-linejoin="round"/>
<path d="M15 21C20.84 19.05 27.16 19.05 33 21" stroke="#06B1FD" stroke-width="1.5" stroke-linecap="round" stroke-linejoin="round"/>
</svg>
