<svg width="1280" height="764" viewBox="0 0 1280 764" fill="none" xmlns="http://www.w3.org/2000/svg">
<g clip-path="url(#clip0_41_12)">
<rect width="1280" height="764" fill="#1E1E2B"/>
<path d="M1304.45 353.538C1267.76 440.278 1173.99 535 1085.88 535C997.766 535 904 427.871 904 339.702C904 251.533 1008.4 146 1096.52 146C1184.63 146 1327.85 252.43 1304.45 353.538Z" fill="white" fill-opacity="0.1"/>
<path d="M102.515 241.5C146.408 241.5 204.129 268.03 247.968 307.226C291.803 346.418 321.585 398.11 309.975 448.382C291.655 491.668 259.094 536.956 220.116 571.422C181.119 605.905 135.764 629.5 91.8789 629.5C48.0152 629.5 2.66946 602.823 -31.7334 565.077C-66.1337 527.334 -89.4999 478.625 -89.5 434.702C-89.5 390.798 -63.492 342.491 -26.4297 305.14C10.6328 267.788 58.6411 241.5 102.515 241.5Z" stroke="white" stroke-opacity="0.2"/>
<path d="M1096.51 324.5C1140.41 324.5 1198.13 351.03 1241.97 390.226C1285.8 429.418 1315.59 481.11 1303.97 531.382C1285.65 574.668 1253.09 619.956 1214.12 654.422C1175.12 688.905 1129.76 712.5 1085.88 712.5C1042.02 712.5 996.669 685.823 962.267 648.077C927.866 610.334 904.5 561.625 904.5 517.702C904.5 473.798 930.508 425.491 967.57 388.14C1004.63 350.788 1052.64 324.5 1096.51 324.5Z" stroke="white" stroke-opacity="0.2"/>
<path d="M752.104 697.186C724.787 761.628 654.987 832 589.394 832C523.801 832 454 752.411 454 686.907C454 621.403 531.719 543 597.311 543C662.904 543 769.523 622.07 752.104 697.186Z" fill="white" fill-opacity="0.1"/>
</g>
<defs>
<clipPath id="clip0_41_12">
<rect width="1280" height="764" fill="white"/>
</clipPath>
</defs>
</svg>
