<svg width="40" height="36" viewBox="0 0 40 36" fill="none" xmlns="http://www.w3.org/2000/svg">
<rect width="40" height="36" rx="8" fill="#06B1FD" fill-opacity="0.05"/>
<path d="M16.666 9.66675V12.1667" stroke="#06B1FD" stroke-width="1.5" stroke-miterlimit="10" stroke-linecap="round" stroke-linejoin="round"/>
<path d="M23.334 9.66675V12.1667" stroke="#06B1FD" stroke-width="1.5" stroke-miterlimit="10" stroke-linecap="round" stroke-linejoin="round"/>
<path d="M12.916 15.575H27.0827" stroke="#06B1FD" stroke-width="1.5" stroke-miterlimit="10" stroke-linecap="round" stroke-linejoin="round"/>
<path d="M28.3327 23.8333C28.3327 24.4583 28.1577 25.05 27.8493 25.55C27.2743 26.5167 26.216 27.1667 24.9993 27.1667C24.1577 27.1667 23.391 26.8583 22.8077 26.3333C22.5494 26.1167 22.3244 25.85 22.1494 25.55C21.841 25.05 21.666 24.4583 21.666 23.8333C21.666 21.9917 23.1577 20.5 24.9993 20.5C25.9993 20.5 26.891 20.9417 27.4993 21.6333C28.016 22.225 28.3327 22.9917 28.3327 23.8333Z" stroke="#06B1FD" stroke-width="1.5" stroke-miterlimit="10" stroke-linecap="round" stroke-linejoin="round"/>
<path d="M23.6992 23.8333L24.5242 24.6583L26.2992 23.0166" stroke="#06B1FD" stroke-width="1.5" stroke-linecap="round" stroke-linejoin="round"/>
<path d="M27.5 15.0834V21.6334C26.8917 20.9417 26 20.5001 25 20.5001C23.1583 20.5001 21.6667 21.9917 21.6667 23.8334C21.6667 24.4584 21.8417 25.0501 22.15 25.5501C22.325 25.8501 22.55 26.1167 22.8083 26.3334H16.6667C13.75 26.3334 12.5 24.6667 12.5 22.1667V15.0834C12.5 12.5834 13.75 10.9167 16.6667 10.9167H23.3333C26.25 10.9167 27.5 12.5834 27.5 15.0834Z" stroke="#06B1FD" stroke-width="1.5" stroke-miterlimit="10" stroke-linecap="round" stroke-linejoin="round"/>
<path d="M19.9961 19.4167H20.0036" stroke="#06B1FD" stroke-width="2" stroke-linecap="round" stroke-linejoin="round"/>
<path d="M16.9121 19.4167H16.9196" stroke="#06B1FD" stroke-width="2" stroke-linecap="round" stroke-linejoin="round"/>
<path d="M16.9121 21.9167H16.9196" stroke="#06B1FD" stroke-width="2" stroke-linecap="round" stroke-linejoin="round"/>
</svg>
