<svg width="40" height="36" viewBox="0 0 40 36" fill="none" xmlns="http://www.w3.org/2000/svg">
<rect width="40" height="36" rx="8" fill="#06B1FD" fill-opacity="0.05"/>
<path d="M20 14.6667V18.8334" stroke="#06B1FD" stroke-width="1.5" stroke-linecap="round" stroke-linejoin="round"/>
<path d="M20.0007 26.3333C15.9757 26.3333 12.709 23.0667 12.709 19.0417C12.709 15.0167 15.9757 11.75 20.0007 11.75C24.0257 11.75 27.2923 15.0167 27.2923 19.0417" stroke="#06B1FD" stroke-width="1.5" stroke-linecap="round" stroke-linejoin="round"/>
<path d="M17.5 9.66675H22.5" stroke="#06B1FD" stroke-width="1.5" stroke-miterlimit="10" stroke-linecap="round" stroke-linejoin="round"/>
<path d="M22.416 23.4167V22.4501C22.416 21.2584 23.266 20.7667 24.2993 21.3667L25.1327 21.8501L25.966 22.3334C26.9994 22.9334 26.9994 23.9084 25.966 24.5084L25.1327 24.9917L24.2993 25.4751C23.266 26.0751 22.416 25.5834 22.416 24.3917V23.4167Z" stroke="#06B1FD" stroke-width="1.5" stroke-miterlimit="10" stroke-linecap="round" stroke-linejoin="round"/>
</svg>
