<svg width="1056" height="200" viewBox="0 0 1056 200" fill="none" xmlns="http://www.w3.org/2000/svg">
<g clip-path="url(#clip0_41_36)">
<rect width="1056" height="200" rx="24" fill="#1E1E2B"/>
<path d="M227.67 161.001C245.567 201.285 247.915 263.673 219.697 293.862C191.479 324.051 124.834 321.951 94.6972 293.782C64.5609 265.613 61.9242 196.127 90.1423 165.938C118.36 135.749 200.605 120.681 227.67 161.001Z" fill="white" fill-opacity="0.1"/>
<path d="M683.115 60.6209C640.258 70.9365 578.474 61.9624 553.886 28.7499C529.298 -4.46268 543.417 -69.6289 576.572 -94.1738C609.727 -118.719 678.544 -108.745 703.131 -75.5323C727.719 -42.3198 727.664 41.2941 683.115 60.6209Z" fill="white" fill-opacity="0.1"/>
<path d="M566.241 -106.5C586.959 -106.5 614.255 -93.9907 635.003 -75.4775C655.747 -56.9677 669.77 -32.6187 664.314 -8.98926C655.646 11.441 640.244 32.8226 621.805 49.0947C603.346 65.384 581.909 76.5 561.2 76.5C540.512 76.4998 519.087 63.9365 502.81 46.1133C486.535 28.2924 475.5 5.31245 475.5 -15.3779C475.5 -36.0496 487.777 -58.8357 505.315 -76.4756C522.853 -94.1155 545.543 -106.5 566.241 -106.5Z" stroke="white" stroke-opacity="0.2"/>
<path d="M-34.7588 -43.5C-14.0414 -43.5 13.2554 -30.9907 34.0029 -12.4775C54.7466 6.03227 68.7701 30.3813 63.3145 54.0107C54.6463 74.441 39.2435 95.8226 20.8047 112.095C2.34646 128.384 -19.0908 139.5 -39.7998 139.5C-60.4876 139.5 -81.9134 126.936 -98.1904 109.113C-114.465 91.2924 -125.5 68.3125 -125.5 47.6221C-125.5 26.9504 -113.223 4.16426 -95.6846 -13.4756C-78.1465 -31.1155 -55.4565 -43.4998 -34.7588 -43.5Z" stroke="white" stroke-opacity="0.2"/>
</g>
<defs>
<clipPath id="clip0_41_36">
<rect width="1056" height="200" rx="24" fill="white"/>
</clipPath>
</defs>
</svg>
