<svg width="563" height="1188" viewBox="0 0 563 1188" fill="none" xmlns="http://www.w3.org/2000/svg">
<rect width="440" height="1174" transform="translate(111.709 14)" fill="#1E1E2B"/>
<path d="M561.031 25.4725C546.263 60.3597 508.526 98.4574 473.064 98.4574C437.602 98.4574 399.865 55.3696 399.865 19.9076C399.865 -15.5543 441.883 -58 477.345 -58C512.807 -58 570.449 -15.1936 561.031 25.4725Z" fill="white" fill-opacity="0.1"/>
<path d="M77.4795 -19.2786C95.0473 -19.2786 118.21 -8.65366 135.819 7.08081C153.426 22.8127 165.308 43.4901 160.687 63.5417C153.33 80.9002 140.258 99.0675 124.611 112.894C108.944 126.739 90.7585 136.178 73.1992 136.178C55.6609 136.178 37.4851 125.512 23.6709 110.365C9.85906 95.2208 0.5 75.6979 0.5 58.1287C0.500163 40.5782 10.9113 21.2206 25.7959 6.22925C40.681 -8.76248 59.9313 -19.2785 77.4795 -19.2786Z" stroke="white" stroke-opacity="0.2"/>
<path d="M477.345 14.1151C494.912 14.1151 518.075 24.74 535.684 40.4745C553.291 56.2064 565.174 76.8838 560.552 96.9354C553.195 114.294 540.123 132.461 524.476 146.288C508.809 160.133 490.624 169.572 473.064 169.572C455.526 169.572 437.35 158.905 423.536 143.759C409.724 128.614 400.365 109.092 400.365 91.5223C400.365 73.9718 410.776 54.6143 425.661 39.6229C440.546 24.6312 459.796 14.1151 477.345 14.1151Z" stroke="white" stroke-opacity="0.2"/>
<path d="M338.724 163.723C327.741 189.667 299.677 218 273.305 218C246.933 218 218.869 185.956 218.869 159.584C218.869 133.212 250.117 101.646 276.489 101.646C302.861 101.646 345.728 133.48 338.724 163.723Z" fill="white" fill-opacity="0.1"/>
</svg>
