<svg width="392" height="192" viewBox="0 0 392 192" fill="none" xmlns="http://www.w3.org/2000/svg">
<g clip-path="url(#clip0_41_48)">
<rect width="392" height="192" rx="24" fill="#1E1E2B"/>
<path d="M143.087 223.883C155.322 251.377 156.961 293.942 137.725 314.521C118.49 335.101 73.0152 333.628 52.436 314.392C31.8567 295.157 30.0163 247.749 49.252 227.17C68.4877 206.591 124.596 196.359 143.087 223.883Z" fill="white" fill-opacity="0.1"/>
<path d="M325.083 25.7924C301.344 31.5223 267.13 26.5834 253.529 8.21038C239.927 -10.1627 247.776 -46.2413 266.149 -59.8431C284.522 -73.445 322.63 -67.956 336.232 -49.583C349.834 -31.2099 349.765 15.0737 325.083 25.7924Z" fill="white" fill-opacity="0.1"/>
<path d="M268.884 -65.6735C280.294 -65.6734 295.373 -58.765 306.848 -48.5123C318.318 -38.2631 326.015 -24.8338 323.03 -11.8444C318.238 -0.542476 309.724 11.2905 299.533 20.2963C289.323 29.3191 277.492 35.4505 266.09 35.4506C254.709 35.4506 242.888 28.5243 233.89 18.6576C224.893 8.79355 218.811 -3.90919 218.811 -15.3209C218.811 -26.714 225.574 -39.3078 235.271 -49.0748C244.969 -58.8422 257.493 -65.6735 268.884 -65.6735Z" stroke="white" stroke-opacity="0.2"/>
<path d="M14.4092 -52.8221C28.4827 -52.8221 47.0584 -44.3062 61.1865 -31.6825C75.3105 -19.0624 84.8166 -2.4992 81.125 13.5441C75.2236 27.4659 64.7387 42.0387 52.1875 53.13C39.6169 64.2384 25.0376 71.8008 10.9727 71.8009C-3.07129 71.8009 -17.6413 63.2579 -28.7227 51.1075C-39.8017 38.9598 -47.3008 23.3065 -47.3008 9.23157C-47.3007 -4.8246 -38.9595 -20.3434 -27.0186 -32.37C-15.0773 -44.3968 0.355335 -52.822 14.4092 -52.8221Z" stroke="white" stroke-opacity="0.2"/>
</g>
<defs>
<clipPath id="clip0_41_48">
<rect width="392" height="192" rx="24" fill="white"/>
</clipPath>
</defs>
</svg>
