<svg width="40" height="36" viewBox="0 0 40 36" fill="none" xmlns="http://www.w3.org/2000/svg">
<rect width="40" height="36" rx="8" fill="#06B1FD" fill-opacity="0.05"/>
<path d="M20.0007 18.0001C22.3018 18.0001 24.1673 16.1346 24.1673 13.8334C24.1673 11.5322 22.3018 9.66675 20.0007 9.66675C17.6995 9.66675 15.834 11.5322 15.834 13.8334C15.834 16.1346 17.6995 18.0001 20.0007 18.0001Z" stroke="#06B1FD" stroke-width="1.5" stroke-linecap="round" stroke-linejoin="round"/>
<path d="M12.8418 26.3333C12.8418 23.1083 16.0502 20.5 20.0002 20.5" stroke="#06B1FD" stroke-width="1.5" stroke-linecap="round" stroke-linejoin="round"/>
<path d="M25.1667 25.8334C26.6394 25.8334 27.8334 24.6394 27.8334 23.1667C27.8334 21.6939 26.6394 20.5 25.1667 20.5C23.6939 20.5 22.5 21.6939 22.5 23.1667C22.5 24.6394 23.6939 25.8334 25.1667 25.8334Z" stroke="#06B1FD" stroke-width="1.5" stroke-linecap="round" stroke-linejoin="round"/>
<path d="M28.3333 26.3333L27.5 25.5" stroke="#06B1FD" stroke-width="1.5" stroke-linecap="round" stroke-linejoin="round"/>
</svg>
