<svg width="806" height="672" viewBox="0 0 806 672" fill="none" xmlns="http://www.w3.org/2000/svg">
<rect width="744" height="672" transform="translate(31)" fill="#1E1E2B"/>
<path d="M804.529 201.701C783.351 251.73 729.236 306.362 678.383 306.362C627.529 306.362 573.414 244.574 573.414 193.721C573.414 142.868 633.668 82 684.521 82C735.374 82 818.034 143.385 804.529 201.701Z" fill="white" fill-opacity="0.1"/>
<path d="M111.107 137.31C136.371 137.31 169.635 152.58 194.912 175.165C220.185 197.746 237.299 227.479 230.637 256.354C220.075 281.285 201.307 307.374 178.839 327.228C156.352 347.1 130.224 360.673 104.969 360.673C79.7349 360.673 53.6169 345.331 33.7842 323.585C13.9538 301.841 0.5 273.796 0.5 248.531C0.500057 223.285 15.4711 195.474 36.8389 173.953C58.2069 152.432 85.8637 137.31 111.107 137.31Z" stroke="white" stroke-opacity="0.2"/>
<path d="M684.521 185.197C709.785 185.197 743.049 200.467 768.326 223.052C793.599 245.633 810.713 275.366 804.051 304.241C793.489 329.172 774.721 355.261 752.253 375.115C729.766 394.987 703.638 408.559 678.383 408.56C653.149 408.56 627.031 393.218 607.198 371.472C587.368 349.728 573.914 321.683 573.914 296.418C573.914 271.172 588.885 243.361 610.253 221.84C631.621 200.319 659.278 185.197 684.521 185.197Z" stroke="white" stroke-opacity="0.2"/>
<path d="M485.735 399.954C469.986 437.159 429.742 477.788 391.923 477.788C354.105 477.788 313.861 431.838 313.861 394.02C313.861 356.201 358.67 310.936 396.488 310.936C434.307 310.936 495.778 356.586 485.735 399.954Z" fill="white" fill-opacity="0.1"/>
</svg>
