<svg width="616" height="202" viewBox="0 0 616 202" fill="none" xmlns="http://www.w3.org/2000/svg">
<g clip-path="url(#clip0_41_103)">
<rect width="616" height="202" rx="24" fill="#1E1E2B"/>
<path d="M143.087 174.883C155.322 202.377 156.961 244.942 137.725 265.521C118.49 286.101 73.0152 284.628 52.436 265.392C31.8567 246.157 30.0163 198.749 49.252 178.17C68.4877 157.591 124.596 147.359 143.087 174.883Z" fill="white" fill-opacity="0.1"/>
<path d="M325.083 -23.2076C301.344 -17.4777 267.13 -22.4166 253.529 -40.7896C239.927 -59.1627 247.776 -95.2413 266.149 -108.843C284.522 -122.445 322.63 -116.956 336.232 -98.583C349.834 -80.2099 349.765 -33.9263 325.083 -23.2076Z" fill="white" fill-opacity="0.1"/>
<path d="M14.4092 -101.822C28.4827 -101.822 47.0584 -93.3062 61.1865 -80.6825C75.3105 -68.0624 84.8166 -51.4992 81.125 -35.4559C75.2236 -21.5341 64.7387 -6.96127 52.1875 4.13C39.6169 15.2384 25.0376 22.8008 10.9727 22.8009C-3.07129 22.8009 -17.6413 14.2579 -28.7227 2.10754C-39.8017 -10.0402 -47.3008 -25.6935 -47.3008 -39.7684C-47.3007 -53.8246 -38.9595 -69.3434 -27.0186 -81.37C-15.0773 -93.3968 0.355335 -101.822 14.4092 -101.822Z" stroke="white" stroke-opacity="0.2"/>
</g>
<defs>
<clipPath id="clip0_41_103">
<rect width="616" height="202" rx="24" fill="white"/>
</clipPath>
</defs>
</svg>
