<svg width="274" height="74" viewBox="0 0 274 74" fill="none" xmlns="http://www.w3.org/2000/svg">
<path d="M17.6398 31.68C17.8798 31.68 18.0478 32.112 18.1438 32.976C18.2878 33.84 18.3598 35.808 18.3598 38.88C18.3598 41.952 18.2878 43.92 18.1438 44.784C18.0478 45.648 17.8798 46.08 17.6398 46.08H14.0398C9.43177 46.08 5.92777 44.808 3.52777 42.264C1.17577 39.72 -0.000234246 36.072 -0.000234246 31.32V-4.72069e-05H13.6798V30.24C13.6798 30.768 13.7758 31.152 13.9678 31.392C14.2078 31.584 14.5918 31.68 15.1198 31.68H17.6398ZM28.4426 31.68C28.9226 31.68 29.1626 34.08 29.1626 38.88C29.1626 42 29.0906 43.992 28.9466 44.856C28.8026 45.672 28.6346 46.08 28.4426 46.08H17.6426C17.1626 46.08 16.9226 43.68 16.9226 38.88C16.9226 35.808 16.9946 33.84 17.1386 32.976C17.2826 32.112 17.4506 31.68 17.6426 31.68H28.4426ZM39.2707 31.68C39.7507 31.68 39.9907 34.08 39.9907 38.88C39.9907 42 39.9187 43.992 39.7747 44.856C39.6307 45.672 39.4627 46.08 39.2707 46.08H28.4707C27.9907 46.08 27.7507 43.68 27.7507 38.88C27.7507 35.808 27.8227 33.84 27.9667 32.976C28.1107 32.112 28.2787 31.68 28.4707 31.68H39.2707ZM60.1788 31.32C60.1788 35.832 58.8348 39.432 56.1468 42.12C53.5068 44.76 49.9308 46.08 45.4188 46.08H39.2988C38.8188 46.08 38.5788 43.68 38.5788 38.88C38.5788 35.808 38.6508 33.84 38.7948 32.976C38.9388 32.112 39.1068 31.68 39.2988 31.68H45.4188C45.8028 31.68 46.1388 31.584 46.4268 31.392C46.7148 31.152 46.8588 30.864 46.8588 30.528V19.08H60.1788V31.32ZM55.8588 50.4V60.84H34.2588V50.4H55.8588ZM101.224 31.68C101.704 31.68 101.944 34.08 101.944 38.88C101.944 43.68 101.704 46.08 101.224 46.08H96.9045C96.3765 51.312 94.4565 55.368 91.1445 58.248C87.8325 61.176 83.5125 62.64 78.1845 62.64H67.3845L66.3045 48.6H80.7045C81.7605 48.6 82.5525 48.36 83.0805 47.88C83.6565 47.448 83.9445 46.848 83.9445 46.08H82.1445C76.5765 46.08 72.5925 44.928 70.1925 42.624C67.8405 40.272 66.6645 36.384 66.6645 30.96C66.6645 27.888 67.2885 25.128 68.5365 22.68C69.8325 20.184 71.6085 18.24 73.8645 16.848C76.1685 15.456 78.8085 14.76 81.7845 14.76C86.6805 14.76 90.4725 16.248 93.1605 19.224C95.8965 22.152 97.2645 26.304 97.2645 31.68H101.224ZM79.6245 30.24C79.6245 31.152 79.8165 31.8 80.2005 32.184C80.5845 32.568 81.2325 32.76 82.1445 32.76H84.3045V30.6C84.3045 28.68 83.4885 27.72 81.8565 27.72C81.1365 27.72 80.5845 27.96 80.2005 28.44C79.8165 28.872 79.6245 29.472 79.6245 30.24ZM117.948 31.68C118.284 31.68 118.572 31.584 118.812 31.392C119.1 31.152 119.244 30.864 119.244 30.528V19.08H132.564V31.32C132.564 35.832 131.22 39.432 128.532 42.12C125.892 44.76 122.316 46.08 117.804 46.08H101.244C100.764 46.08 100.524 43.68 100.524 38.88C100.524 35.808 100.596 33.84 100.74 32.976C100.884 32.112 101.052 31.68 101.244 31.68H117.948ZM121.404 50.4V60.84H99.8041V50.4H121.404ZM105.204 73.44V63H116.004V73.44H105.204ZM149.124 48.24C153.924 48.24 156.324 46.32 156.324 42.48V19.08H170.004V30.24C170.004 30.768 170.1 31.152 170.292 31.392C170.532 31.584 170.916 31.68 171.444 31.68H174.324C174.804 31.68 175.044 34.08 175.044 38.88C175.044 43.68 174.804 46.08 174.324 46.08H172.884C171.54 46.08 170.508 45.912 169.788 45.576C169.356 48.792 168.3 51.696 166.62 54.288C164.988 56.88 162.78 58.92 159.996 60.408C157.212 61.896 153.948 62.64 150.204 62.64H146.604L145.524 48.24H149.124ZM185.099 31.68C185.579 31.68 185.819 34.08 185.819 38.88C185.819 42 185.747 43.992 185.603 44.856C185.459 45.672 185.291 46.08 185.099 46.08H174.299C173.819 46.08 173.579 43.68 173.579 38.88C173.579 35.808 173.651 33.84 173.795 32.976C173.939 32.112 174.107 31.68 174.299 31.68H185.099ZM187.647 31.68C188.607 31.68 189.087 31.32 189.087 30.6V19.08H202.767V28.08C206.031 23.184 209.295 19.56 212.559 17.208C215.871 14.856 219.327 13.68 222.927 13.68C225.759 13.68 228.255 14.352 230.415 15.696C232.623 17.04 234.327 18.912 235.527 21.312C236.727 23.712 237.327 26.448 237.327 29.52C237.327 30.432 237.303 31.08 237.255 31.464C237.687 31.608 238.431 31.68 239.487 31.68H241.287C241.767 31.68 242.007 34.08 242.007 38.88C242.007 43.68 241.767 46.08 241.287 46.08H239.487C237.615 46.08 235.959 45.888 234.519 45.504C233.079 45.072 231.735 44.376 230.487 43.416C227.655 45.192 224.415 46.08 220.767 46.08H203.487C199.935 46.08 197.295 45.24 195.567 43.56C194.655 44.472 193.599 45.12 192.399 45.504C191.199 45.888 189.615 46.08 187.647 46.08H185.127C184.647 46.08 184.407 43.68 184.407 38.88C184.407 35.808 184.479 33.84 184.623 32.976C184.767 32.112 184.935 31.68 185.127 31.68H187.647ZM221.127 32.04C221.991 32.04 222.687 31.8 223.215 31.32C223.743 30.84 224.007 30.24 224.007 29.52C224.007 28.944 223.815 28.44 223.431 28.008C223.047 27.576 222.519 27.36 221.847 27.36C220.551 27.36 218.151 28.92 214.647 32.04H221.127ZM245.555 31.68C245.363 30.72 245.267 29.88 245.267 29.16C245.267 26.184 245.891 23.52 247.139 21.168C248.387 18.816 250.139 16.992 252.395 15.696C254.651 14.352 257.195 13.68 260.027 13.68C261.995 13.68 263.915 13.968 265.787 14.544C267.707 15.12 269.747 16.032 271.907 17.28L267.803 29.016C264.539 27.912 262.187 27.36 260.747 27.36C259.979 27.36 259.355 27.552 258.875 27.936C258.443 28.272 258.227 28.8 258.227 29.52C258.227 30.96 259.067 31.68 260.747 31.68H273.347L272.267 46.08H241.307C240.827 46.08 240.587 43.68 240.587 38.88C240.587 35.808 240.659 33.84 240.803 32.976C240.947 32.112 241.115 31.68 241.307 31.68H245.555Z" fill="#1E1E2B"/>
</svg>
