<svg width="32" height="32" viewBox="0 0 32 32" fill="none" xmlns="http://www.w3.org/2000/svg">
<path d="M29.3337 16.0001C29.3337 8.64008 23.3603 2.66675 16.0003 2.66675C8.64033 2.66675 2.66699 8.64008 2.66699 16.0001C2.66699 23.3601 8.64033 29.3334 16.0003 29.3334" stroke="#06B1FD" stroke-width="2" stroke-linecap="round" stroke-linejoin="round"/>
<path d="M10.6674 4H12.0008C9.40078 11.7867 9.40078 20.2133 12.0008 28H10.6674" stroke="#06B1FD" stroke-width="2" stroke-linecap="round" stroke-linejoin="round"/>
<path d="M20 4C21.2933 7.89333 21.9467 11.9467 21.9467 16" stroke="#06B1FD" stroke-width="2" stroke-linecap="round" stroke-linejoin="round"/>
<path d="M4 21.3333V20C7.89333 21.2933 11.9467 21.9467 16 21.9467" stroke="#06B1FD" stroke-width="2" stroke-linecap="round" stroke-linejoin="round"/>
<path d="M4 12C11.7867 9.40005 20.2133 9.40005 28 12" stroke="#06B1FD" stroke-width="2" stroke-linecap="round" stroke-linejoin="round"/>
<path d="M24.2667 28.5334C26.6231 28.5334 28.5333 26.6231 28.5333 24.2667C28.5333 21.9103 26.6231 20 24.2667 20C21.9102 20 20 21.9103 20 24.2667C20 26.6231 21.9102 28.5334 24.2667 28.5334Z" stroke="#06B1FD" stroke-width="2" stroke-linecap="round" stroke-linejoin="round"/>
<path d="M29.3333 29.3333L28 28" stroke="#06B1FD" stroke-width="2" stroke-linecap="round" stroke-linejoin="round"/>
</svg>
