<svg width="18" height="18" viewBox="0 0 18 18" fill="none" xmlns="http://www.w3.org/2000/svg">
<path fill-rule="evenodd" clip-rule="evenodd" d="M14.2226 8.95779C15.169 9.50582 15.736 10.6398 15.4222 11.8584C15.1843 12.7844 14.4036 13.5164 13.4651 13.7009C13.3258 13.7287 13.1878 13.7447 13.0536 13.7506C12.372 13.7798 11.8583 13.1318 12.0174 12.4685L12.6982 9.62184C12.8595 8.94902 13.6242 8.61114 14.2226 8.95779Z" stroke="#06B1FD" stroke-linecap="round" stroke-linejoin="round"/>
<path d="M8.63281 15.7302C10.3775 15.7302 11.6137 16.0886 12.8637 13.752" stroke="#06B1FD" stroke-linecap="round" stroke-linejoin="round"/>
<path fill-rule="evenodd" clip-rule="evenodd" d="M3.7768 8.95779C2.83036 9.50582 2.26336 10.6398 2.57715 11.8584C2.81503 12.7844 3.59584 13.5164 4.53425 13.7009C4.67363 13.7287 4.81155 13.7447 4.94581 13.7506C5.62738 13.7798 6.1411 13.1318 5.98202 12.4685L5.30119 9.62184C5.13992 8.94902 4.37518 8.61114 3.7768 8.95779Z" stroke="#06B1FD" stroke-linecap="round" stroke-linejoin="round"/>
<path d="M14.5134 9.15315V7.76453C14.5134 4.71938 12.0447 2.25 8.99884 2.25C5.95302 2.25 3.48438 4.71938 3.48438 7.76453V9.15315" stroke="#06B1FD" stroke-linecap="round" stroke-linejoin="round"/>
</svg>
