<svg width="65" height="65" viewBox="0 0 65 65" fill="none" xmlns="http://www.w3.org/2000/svg">
<g filter="url(#filter0_d_4_820)">
<circle cx="32.0996" cy="28.1001" r="24" fill="#33CA22"/>
</g>
<path d="M26.9996 36.7001C28.4996 37.6001 30.2996 38.1001 32.0996 38.1001C37.5996 38.1001 42.0996 33.6001 42.0996 28.1001C42.0996 22.6001 37.5996 18.1001 32.0996 18.1001C26.5996 18.1001 22.0996 22.6001 22.0996 28.1001C22.0996 29.9001 22.5996 31.6001 23.3996 33.1001L22.5401 36.4061C22.3453 37.155 23.0385 37.8318 23.7826 37.6192L26.9996 36.7001Z" stroke="white" stroke-miterlimit="10" stroke-linecap="round" stroke-linejoin="round"/>
<path d="M36.5996 30.9486C36.5996 31.1106 36.5636 31.2771 36.4869 31.4391C36.4103 31.6011 36.3112 31.7541 36.1805 31.8981C35.9597 32.1411 35.7163 32.3166 35.4414 32.4291C35.171 32.5416 34.878 32.6001 34.5626 32.6001C34.1029 32.6001 33.6116 32.4921 33.0933 32.2716C32.5751 32.0511 32.0568 31.7541 31.543 31.3806C31.0247 31.0026 30.5335 30.5841 30.0648 30.1206C29.6006 29.6526 29.1815 29.1621 28.8074 28.6491C28.4379 28.1361 28.1404 27.6231 27.9241 27.1146C27.7078 26.6016 27.5996 26.1111 27.5996 25.6431C27.5996 25.3371 27.6537 25.0446 27.7619 24.7746C27.87 24.5001 28.0413 24.2481 28.2801 24.0231C28.5686 23.7396 28.884 23.6001 29.2175 23.6001C29.3437 23.6001 29.4699 23.6271 29.5826 23.6811C29.6998 23.7351 29.8034 23.8161 29.8845 23.9331L30.9301 25.4046C31.0112 25.5171 31.0698 25.6206 31.1104 25.7196C31.1509 25.8141 31.1735 25.9086 31.1735 25.9941C31.1735 26.1021 31.1419 26.2101 31.0788 26.3136C31.0202 26.4171 30.9346 26.5251 30.8264 26.6331L30.4839 26.9886C30.4344 27.0381 30.4118 27.0966 30.4118 27.1686C30.4118 27.2046 30.4163 27.2361 30.4253 27.2721C30.4389 27.3081 30.4524 27.3351 30.4614 27.3621C30.5425 27.5106 30.6822 27.7041 30.8805 27.9381C31.0833 28.1721 31.2997 28.4106 31.534 28.6491C31.7774 28.8876 32.0117 29.1081 32.2506 29.3106C32.4849 29.5086 32.6787 29.6436 32.832 29.7246C32.8545 29.7336 32.8815 29.7471 32.9131 29.7606C32.9491 29.7741 32.9852 29.7786 33.0257 29.7786C33.1024 29.7786 33.161 29.7516 33.2105 29.7021L33.553 29.3646C33.6657 29.2521 33.7739 29.1666 33.8775 29.1126C33.9812 29.0496 34.0848 29.0181 34.1975 29.0181C34.2831 29.0181 34.3733 29.0361 34.4724 29.0766C34.5716 29.1171 34.6752 29.1756 34.7879 29.2521L36.2796 30.3096C36.3968 30.3906 36.4779 30.4851 36.5275 30.5976C36.5726 30.7101 36.5996 30.8226 36.5996 30.9486Z" stroke="white" stroke-miterlimit="10"/>
<defs>
<filter id="filter0_d_4_820" x="-0.000391006" y="9.72748e-05" width="64.2" height="64.2" filterUnits="userSpaceOnUse" color-interpolation-filters="sRGB">
<feFlood flood-opacity="0" result="BackgroundImageFix"/>
<feColorMatrix in="SourceAlpha" type="matrix" values="0 0 0 0 0 0 0 0 0 0 0 0 0 0 0 0 0 0 127 0" result="hardAlpha"/>
<feMorphology radius="1" operator="erode" in="SourceAlpha" result="effect1_dropShadow_4_820"/>
<feOffset dy="4"/>
<feGaussianBlur stdDeviation="4.55"/>
<feComposite in2="hardAlpha" operator="out"/>
<feColorMatrix type="matrix" values="0 0 0 0 0.2 0 0 0 0 0.792157 0 0 0 0 0.133333 0 0 0 0.35 0"/>
<feBlend mode="normal" in2="BackgroundImageFix" result="effect1_dropShadow_4_820"/>
<feBlend mode="normal" in="SourceGraphic" in2="effect1_dropShadow_4_820" result="shape"/>
</filter>
</defs>
</svg>
